<?xml version="1.0" encoding="utf-8"?>
<!-- Generator: Adobe Illustrator 24.2.0, SVG Export Plug-In . SVG Version: 6.00 Build 0)  -->
<svg version="1.1" id="Laag_1" xmlns="http://www.w3.org/2000/svg" xmlns:xlink="http://www.w3.org/1999/xlink" x="0px" y="0px"
	 viewBox="0 0 155.91 141.73" style="enable-background:new 0 0 155.91 141.73;" xml:space="preserve">
<style type="text/css">
	.st0{fill:#2A2622;}
	.st1{fill:none;}
	.st2{fill:#322C22;}
	.st3{fill:#FBCA00;}
	.st4{fill:#1F1E1B;}
	.st5{fill:#E58914;}
	.st6{fill:#322C21;}
	.st7{fill:#585756;}
	.st8{fill:#1D1C19;}
</style>
<g id="XMLID_315_">
	<g id="XMLID_74_">
		<path id="XMLID_304_" class="st0" d="M53.65,88.4l0.12-0.06c-0.04,0.01-0.09,0.01-0.13,0.02c0.01,0.01,0.03,0.02,0.04,0.03
			L53.65,88.4z"/>
		<path id="XMLID_303_" class="st1" d="M53.65,88.4l0.12-0.06c-0.04,0.01-0.09,0.01-0.13,0.02c0.01,0.01,0.03,0.02,0.04,0.03
			L53.65,88.4z"/>
		<path id="XMLID_301_" class="st1" d="M53.65,88.4l0.12-0.06c-0.04,0.01-0.09,0.01-0.13,0.02c0.01,0.01,0.03,0.02,0.04,0.03
			L53.65,88.4z"/>
		<path id="XMLID_300_" class="st2" d="M68.05,100.44c1.05-1.99,2.17-3.85,3.24-5.73c1.11-1.94,2.22-3.87,3.33-5.81
			c1.09-1.9,2.17-3.79,3.26-5.69c1.11-1.94,2.22-3.87,3.33-5.81c1.09-1.9,2.17-3.79,3.26-5.69c1.11-1.94,2.22-3.87,3.33-5.81
			c1.08-1.89,2.16-3.78,3.28-5.73c-0.42-0.34-0.88-0.41-1.29-0.54c-5.46-1.74-10.93-3.47-16.39-5.21c-0.47-0.15-0.93-0.32-1.45-0.5
			c0.09-0.46,0.44-0.62,0.7-0.83c3.47-2.73,6.95-5.46,10.42-8.19c12.14-9.53,24.28-19.06,36.42-28.6c3.33-2.62,6.66-5.23,10-7.84
			c0.23-0.18,0.41-0.5,0.87-0.41c-0.17,0.48-0.38,0.9-0.74,1.25c-0.16,0.05-0.26,0.16-0.31,0.32c0,0,0.05-0.02,0.04-0.02
			c-0.34,0.07-0.54,0.33-0.73,0.58c-2.28,3.06-4.55,6.12-6.9,9.13c-2.29,2.93-4.52,5.92-6.75,8.89c-2.29,3.05-4.56,6.11-6.9,9.13
			c-3.08,3.99-6.09,8.03-9.12,12.05c-0.98,1.31-1.92,2.65-2.93,3.93c-0.47,0.59-0.29,0.94,0.43,1.14c1.09,0.3,2.17,0.67,3.26,0.99
			c3.4,0.99,6.8,1.96,10.2,2.96c1.6,0.47,1.62,0.55,0.44,1.72c-1.75,1.73-3.5,3.45-5.33,5.09c-1.8,1.61-3.43,3.38-5.23,4.99
			c-2.27,2.03-4.34,4.28-6.61,6.31c-1.87,1.66-3.55,3.51-5.43,5.18c-2.24,1.99-4.27,4.22-6.52,6.21c-1.9,1.69-3.59,3.61-5.53,5.27
			c-1.48,1.27-2.8,2.73-4.19,4.11c-0.19,0.19-0.41,0.37-0.4,0.68c0,0-1.32,1.19-1.42,1.29C69.7,99.28,68.52,100.38,68.05,100.44z"/>
		<path id="XMLID_299_" class="st3" d="M107.68,105.28c-0.19,0.12-0.37,0.26-0.56,0.37c-5.5,3.01-11.01,6.02-16.52,9.02
			c-0.24,0.13-0.48,0.26-0.72,0.39c-0.18,0.09-0.36,0.06-0.51-0.04c-0.26-0.18-0.51-0.38-0.77-0.57c-2.46-1.81-5.03-3.44-7.73-4.86
			c-3.07-1.61-5.97-3.48-8.67-5.66c-0.18-0.14-0.34-0.3-0.51-0.45c-0.03-0.03-0.04-0.08-0.09-0.2c0.15-0.34,0.52-0.53,0.83-0.77
			c6.05-4.75,12.1-9.5,18.15-14.25c2.36-1.85,4.72-3.71,7.09-5.57c0.32-0.25,0.66-0.47,1-0.7c0.15,0.28,0.26,0.59,0.45,0.84
			c1.7,2.32,2.98,4.87,4.24,7.43c0.72,1.46,1.39,2.94,1.84,4.52c0.27,0.96,0.63,1.89,0.88,2.86c0.62,2.4,1.12,4.83,1.41,7.3
			C107.48,105.07,107.61,105.17,107.68,105.28z"/>
		<path id="XMLID_298_" class="st4" d="M71.12,98c-0.01-0.31,0.21-0.49,0.4-0.68c1.39-1.38,2.71-2.84,4.19-4.11
			c1.94-1.67,3.62-3.59,5.53-5.27c2.25-1.99,4.28-4.22,6.52-6.21c1.87-1.67,3.56-3.52,5.43-5.18c2.28-2.03,4.35-4.28,6.61-6.31
			c1.8-1.61,3.44-3.39,5.23-4.99c1.83-1.64,3.58-3.36,5.33-5.09c1.18-1.17,1.17-1.25-0.44-1.72c-3.4-0.99-6.8-1.97-10.2-2.96
			c-1.09-0.32-2.16-0.69-3.26-0.99c-0.72-0.2-0.9-0.55-0.43-1.14c1.01-1.28,1.95-2.63,2.93-3.93c3.03-4.02,6.04-8.07,9.12-12.05
			c2.33-3.02,4.61-6.08,6.9-9.13c2.24-2.98,4.46-5.96,6.75-8.89c2.35-3.01,4.62-6.07,6.9-9.13c0.19-0.25,0.39-0.51,0.73-0.58
			c0.03,0.45-0.28,0.76-0.48,1.1c-2.8,4.79-5.62,9.57-8.42,14.36c-4.18,7.15-8.35,14.3-12.53,21.45c-0.48,0.83-0.98,1.64-1.45,2.47
			c-0.46,0.81-0.45,0.84,0.39,1.13c0.21,0.07,0.43,0.14,0.65,0.21c5.55,1.76,11.1,3.51,16.64,5.29c0.33,0.11,0.86,0.06,0.94,0.43
			c0.1,0.46-0.45,0.61-0.74,0.84C108.42,69.3,92.5,81.66,76.57,94.03c-1.55,1.2-3.09,2.41-4.64,3.6C71.7,97.81,71.51,98.13,71.12,98
			z"/>
		<path id="XMLID_297_" class="st5" d="M107.68,105.28c-0.07-0.11-0.2-0.22-0.21-0.34c-0.29-2.47-0.79-4.9-1.41-7.3
			c-0.25-0.96-0.61-1.9-0.88-2.86c-0.44-1.58-1.12-3.05-1.84-4.52c-1.26-2.56-2.54-5.12-4.24-7.43c-0.19-0.25-0.3-0.56-0.45-0.84
			c0.19-0.19,0.37-0.39,0.58-0.56c4.65-3.65,9.29-7.3,13.94-10.96c0.14-0.11,0.28-0.23,0.43-0.33c0.32-0.22,0.48-0.2,0.66,0.1
			c0.12,0.19,0.22,0.4,0.32,0.6c2.19,4.17,3.73,8.58,4.53,13.22c0.74,4.34,1.28,8.72,1.17,13.15c-0.01,0.27-0.02,0.55-0.01,0.82
			c0.01,0.3-0.12,0.52-0.38,0.66c-0.12,0.06-0.24,0.13-0.36,0.2c-3.79,2.06-7.58,4.13-11.37,6.19
			C108.02,105.18,107.85,105.22,107.68,105.28z"/>
		<path id="XMLID_296_" class="st3" d="M65.61,96.04c-0.04,0.13-0.06,0.27-0.13,0.38c-0.23,0.36-0.4,0.39-0.62,0.12
			c-0.96-1.16-1.79-2.41-2.56-3.71c-2.04-3.44-3.45-7.13-3.98-11.11c-0.54-4.07-0.2-8.09,1.09-12c1.57-4.77,4.22-8.85,7.92-12.25
			c0.28-0.26,0.5-0.69,1.01-0.56c0.86,0.99,1.66,2.04,2.6,2.96c1.59,1.56,2.97,3.31,4.56,4.87c0.49,0.49,0.55,0.96,0.31,1.59
			c-0.52,1.35-0.98,2.73-1.46,4.1c-1.37,3.94-2.75,7.88-4.12,11.82c-1.06,3.04-2.1,6.09-3.16,9.13c-0.25,0.73-0.55,1.44-0.79,2.17
			C66.05,94.38,65.62,95.15,65.61,96.04z"/>
		<path id="XMLID_295_" class="st4" d="M107.72,109.41c0.22-0.15,0.43-0.33,0.67-0.46c3.51-1.92,7.03-3.85,10.55-5.76
			c0.26-0.14,0.51-0.41,0.91-0.26c0.01,1.08-0.22,2.15-0.42,3.21c-2,10.55-6.79,19.63-14.36,27.25c-0.54,0.55-1.06,1.13-1.75,1.51
			c0.12-0.44,0.21-0.88,0.37-1.31c0.39-1.11,0.84-2.21,1.22-3.33c0.83-2.5,1.59-5.01,2.02-7.62c0.2-1.21,0.43-2.4,0.56-3.62
			c0.21-1.85,0.47-3.68,0.48-5.55C107.97,112.11,107.98,110.75,107.72,109.41z"/>
		<path id="XMLID_294_" class="st5" d="M65.61,96.04c0.01-0.89,0.44-1.66,0.69-2.48c0.23-0.73,0.53-1.45,0.79-2.17
			c1.06-3.04,2.1-6.09,3.16-9.13c1.37-3.94,2.74-7.88,4.12-11.82c0.48-1.37,0.94-2.75,1.46-4.1c0.24-0.63,0.19-1.11-0.31-1.59
			c-1.58-1.56-2.97-3.3-4.56-4.87c-0.93-0.92-1.73-1.97-2.6-2.96c0.48-0.05,0.89,0.18,1.31,0.32c4.81,1.52,9.61,3.05,14.42,4.58
			c0.35,0.11,0.69,0.23,1.03,0.36c0.15,0.06,0.19,0.23,0.14,0.34c-0.13,0.29-0.29,0.57-0.45,0.84c-3.76,6.44-7.53,12.87-11.29,19.31
			c-2.36,4.04-4.73,8.09-7.1,12.12C66.17,95.22,65.99,95.7,65.61,96.04z"/>
		<path id="XMLID_293_" class="st2" d="M107.72,109.41c0.27,1.35,0.26,2.71,0.26,4.07c0,1.86-0.27,3.7-0.48,5.55
			c-0.14,1.22-0.36,2.42-0.56,3.62c-0.43,2.61-1.2,5.12-2.02,7.62c-0.37,1.12-0.82,2.21-1.22,3.33c-0.15,0.43-0.25,0.87-0.37,1.31
			c-0.07,0.03-0.16,0.11-0.21,0.09c-0.2-0.07-0.22-0.27-0.25-0.44c-0.62-3.9-2.3-7.35-4.57-10.53c-1.35-1.89-2.88-3.63-4.56-5.24
			c-0.36-0.34-0.7-0.7-1.02-1.02c0.06-0.33,0.29-0.41,0.48-0.52c4.71-2.57,9.42-5.14,14.13-7.71
			C107.45,109.47,107.59,109.45,107.72,109.41z"/>
		<path id="XMLID_292_" class="st5" d="M149.89,29.13c-0.16,0.35-0.5,0.52-0.78,0.74c-8.59,6.84-17.18,13.66-25.75,20.52
			c-0.7,0.56-1.27,0.65-2.09,0.37c-2.76-0.93-5.55-1.76-8.32-2.66c-0.36-0.12-0.83-0.08-1.06-0.5c0.12-0.07,0.18-0.18,0.16-0.32
			l-0.02,0.01c0.45,0.08,0.78-0.19,1.15-0.36c2.99-1.43,5.94-2.94,8.93-4.37c6.19-2.95,12.25-6.17,18.46-9.08
			c2.71-1.28,5.37-2.67,8.06-4C149.02,29.29,149.39,28.96,149.89,29.13z"/>
		<path id="XMLID_291_" class="st3" d="M149.89,29.13c-0.5-0.17-0.87,0.16-1.27,0.36c-2.69,1.33-5.35,2.72-8.06,4
			c-6.21,2.92-12.27,6.13-18.46,9.08c-2.99,1.43-5.94,2.94-8.93,4.37c-0.36,0.17-0.7,0.44-1.15,0.36c0-0.29,0.16-0.51,0.3-0.75
			c1.36-2.31,2.74-4.61,4.05-6.95c0.39-0.7,0.92-1.04,1.65-1.26c5.39-1.63,10.78-3.28,16.16-4.92c4.78-1.46,9.55-2.92,14.33-4.38
			c0.43-0.13,0.85-0.35,1.32-0.3c0.01,0.12,0.03,0.24,0.04,0.37L149.89,29.13z"/>
		<path id="XMLID_289_" class="st6" d="M129.31,9.65c0.05-0.16,0.15-0.27,0.31-0.32C129.53,9.49,129.51,9.55,129.31,9.65z"/>
		<path id="XMLID_288_" class="st3" d="M112.04,47.28c0.02,0.14-0.03,0.25-0.16,0.32C111.79,47.43,111.86,47.33,112.04,47.28z"/>
		<g id="XMLID_239_">
			<path id="XMLID_285_" class="st2" d="M42.9,72.98c-0.07,0.06-0.14,0.08-0.23,0.07c-0.15-0.04-0.26,0.01-0.31,0.17
				c-0.09,0.02-0.18,0.04-0.28,0.06c-0.35-0.25-0.39-0.23-0.53,0.23c-0.09,0.02-0.18,0.05-0.28,0.07c-0.08,0.04-0.16,0.09-0.24,0.13
				c-1.27,0.63-2.63,1.01-3.95,1.47c-0.41,0.14-0.57,0.05-0.72-0.37c-0.95-2.61-1.79-5.25-2.45-7.94c-0.48-1.94-0.93-3.89-1.24-5.87
				c-0.65-4.11-0.92-8.24-0.36-12.38c0.32-2.35,0.89-4.64,1.85-6.83c0.36-0.83,0.35-0.84-0.34-1.48c-2.89-2.64-6.15-4.69-9.84-6
				c-4.26-1.52-8.66-2.15-13.16-1.52c-1.58,0.22-3.04-1.1-2.57-3.05c0.13-0.57,0.54-0.95,1.05-1.19c0.54-0.25,1.12-0.34,1.73-0.34
				c1.7-0.01,3.36,0.26,5.01,0.59c4.23,0.84,8.21,2.34,11.87,4.65c2.45,1.54,4.62,3.4,6.52,5.58c0.18,0.2,0.37,0.4,0.56,0.59
				c0.03,0.03,0.08,0.04,0.13,0.07c0.23-0.27,0.45-0.54,0.68-0.82c0.53,0.06,0.99-0.14,1.4-0.45c1.39-1.06,2.97-1.75,4.58-2.38
				c1.57-0.61,3.22-0.88,4.9-1c0.78-0.05,1.53,0.18,2.29,0.23c1.32,0.1,2.47,0.64,3.59,1.2c1.9,0.95,3.4,2.46,4.69,4.1
				c1.48,1.88,2.34,4.12,2.58,6.5c0.19,1.94,0.07,3.89-0.39,5.81c-0.63,2.64-1.83,5.02-3.25,7.3c-0.81,1.3-1.75,2.51-2.76,3.69
				c-1.63,1.91-3.46,3.58-5.43,5.12c-1.5,1.18-3.11,2.21-4.74,3.19 M52.83,44.6c0.24-0.05,0.47-0.14,0.37-0.43
				c-0.1-0.3-0.29-0.57-0.41-0.86c-0.45-1.06-1.22-1.77-2.24-2.28c-1.08-0.54-2.18-0.91-3.4-0.8c-0.27,0.02-0.55,0.01-0.82,0
				c-1.49-0.03-2.76,0.59-3.88,1.46c-1.1,0.85-1.78,2.03-2.28,3.33c-0.74,1.94-0.63,3.95-0.48,5.93c0.14,1.89,0.74,3.72,1.32,5.54
				c0.07,0.21,0.17,0.42,0.27,0.62c0.11,0.22,0.32,0.37,0.55,0.31c1.05-0.25,2.1-0.52,2.95-1.24c0.03-0.03,0.04-0.08,0.06-0.12
				c0.18-0.02,0.37,0.01,0.54-0.05c1.45-0.54,2.85-1.19,4.13-2.08c0.98-0.68,1.87-1.45,2.57-2.42c1.52-2.11,2.03-4.34,0.78-6.78
				C52.84,44.69,52.84,44.65,52.83,44.6z"/>
			<path id="XMLID_284_" class="st4" d="M42.91,72.74c0.03-0.24,0.12-0.42,0.34-0.55c1.63-0.99,3.23-2.02,4.74-3.19
				c1.97-1.54,3.8-3.21,5.43-5.12c1.01-1.18,1.95-2.38,2.76-3.69c1.42-2.28,2.62-4.66,3.25-7.3c0.46-1.92,0.58-3.88,0.39-5.81
				c-0.24-2.38-1.1-4.62-2.58-6.5c-1.29-1.64-2.8-3.15-4.69-4.1c-1.12-0.56-2.27-1.1-3.59-1.2c-0.76-0.06-1.51-0.29-2.29-0.23
				c-1.68,0.12-3.33,0.39-4.9,1c-1.61,0.62-3.19,1.32-4.58,2.38c-0.4,0.31-0.86,0.51-1.4,0.45c0.81-1.56,2.05-2.77,3.35-3.91
				c0.31-0.27,0.63-0.51,0.98-0.79c-0.02-0.38-0.27-0.66-0.45-0.96c-3.51-5.86-7.95-10.86-13.65-14.69
				c-2.77-1.86-5.7-3.41-8.93-4.32c-0.35-0.1-0.71-0.17-1.06-0.26c-0.82-0.22-1.36-0.75-1.53-1.57c-0.19-0.89-0.08-1.74,0.64-2.39
				c0.51-0.46,1.14-0.55,1.79-0.48c0.73,0.07,1.42,0.3,2.1,0.57c2.81,1.14,5.33,2.75,7.7,4.62c3.67,2.9,6.79,6.31,9.49,10.13
				c1.76,2.5,3.32,5.11,4.73,7.82c0.13,0.24,0.24,0.49,0.48,0.67c1.33-0.68,2.69-1.31,4.15-1.68c3.83-0.97,7.59-0.77,11.22,0.81
				c4.83,2.1,7.69,5.86,8.78,10.94c0.92,4.3,0.15,8.41-1.77,12.33c-0.89,1.81-1.98,3.48-3.27,5.02c-3.37,4.05-7.5,7.14-12.14,9.57
				c-0.16-0.03-0.26,0.03-0.3,0.19c-0.06,0.07-0.14,0.1-0.23,0.09c-0.17-0.03-0.27,0.04-0.33,0.2l-0.05,0.02
				c-0.23-0.03-0.4,0.04-0.49,0.26l-0.05,0.02c-0.23-0.03-0.4,0.04-0.5,0.26l-0.04,0.02c-0.23-0.04-0.4,0.03-0.5,0.25l-0.05,0.02
				c-0.23-0.04-0.4,0.03-0.5,0.25l-0.06,0.02c-0.22-0.04-0.39,0.01-0.48,0.23c-0.07,0.07-0.16,0.09-0.25,0.09
				c-0.15-0.04-0.25,0.01-0.3,0.16c-0.28,0.12-0.57,0.24-0.85,0.36C43.25,72.74,43.08,72.74,42.91,72.74z"/>
			<g id="XMLID_234_">
				<path id="XMLID_271_" class="st4" d="M41.55,73.51c0.14-0.47,0.18-0.48,0.53-0.23C41.92,73.39,41.77,73.53,41.55,73.51z"/>
				<path id="XMLID_270_" class="st7" d="M46.45,71.34c0.1-0.22,0.27-0.29,0.5-0.26C46.81,71.23,46.68,71.38,46.45,71.34z"/>
				<path id="XMLID_269_" class="st7" d="M42.91,72.74c0.17,0,0.34,0,0.51,0c-0.14,0.14-0.29,0.27-0.52,0.24
					C42.89,72.9,42.9,72.82,42.91,72.74z"/>
				<path id="XMLID_267_" class="st7" d="M44.82,72.13c0.09-0.22,0.26-0.27,0.48-0.23C45.16,72.03,45.03,72.16,44.82,72.13z"/>
				<path id="XMLID_266_" class="st7" d="M45.35,71.88c0.1-0.22,0.27-0.28,0.5-0.25C45.71,71.77,45.58,71.91,45.35,71.88z"/>
				<path id="XMLID_264_" class="st7" d="M45.9,71.61c0.1-0.22,0.27-0.29,0.5-0.25C46.27,71.5,46.13,71.65,45.9,71.61z"/>
				<path id="XMLID_263_" class="st7" d="M47,71.07c0.1-0.22,0.27-0.29,0.49-0.26C47.36,70.96,47.22,71.1,47,71.07z"/>
				<path id="XMLID_259_" class="st7" d="M47.54,70.79c0.06-0.15,0.16-0.23,0.33-0.2C47.81,70.74,47.71,70.82,47.54,70.79z"/>
				<path id="XMLID_258_" class="st7" d="M48.1,70.5c0.04-0.16,0.14-0.22,0.3-0.19C48.34,70.44,48.26,70.54,48.1,70.5z"/>
				<path id="XMLID_237_" class="st4" d="M41.03,73.71c0.08-0.04,0.16-0.09,0.24-0.13C41.22,73.68,41.15,73.74,41.03,73.71z"/>
				<path id="XMLID_236_" class="st7" d="M44.27,72.38c0.04-0.16,0.15-0.2,0.3-0.16C44.5,72.34,44.42,72.42,44.27,72.38z"/>
				<path id="XMLID_235_" class="st7" d="M42.36,73.21c0.05-0.15,0.16-0.2,0.31-0.17C42.6,73.17,42.51,73.26,42.36,73.21z"/>
			</g>
			<path id="XMLID_233_" class="st8" d="M52.83,44.6c-0.38-0.41-0.77-0.83-1.15-1.24c-0.01-0.14-0.09-0.18-0.21-0.15l-0.05-0.03
				c-0.05-0.16-0.15-0.23-0.32-0.2c-0.9-0.31-1.81-0.62-2.79-0.47c-1.9,0.29-3.25,1.33-4.04,3.07c-0.67,1.48-0.86,3.06-0.73,4.66
				c0.16,2,0.58,3.95,1.3,5.83c-0.02,0.04-0.03,0.09-0.06,0.12c-0.85,0.73-1.9,0.99-2.95,1.24c-0.23,0.06-0.44-0.09-0.55-0.31
				c-0.1-0.2-0.2-0.41-0.27-0.62c-0.58-1.81-1.17-3.65-1.32-5.54c-0.15-1.98-0.26-4,0.48-5.93c0.5-1.3,1.19-2.49,2.28-3.33
				c1.12-0.87,2.39-1.49,3.88-1.46c0.27,0.01,0.55,0.02,0.82,0c1.22-0.11,2.32,0.26,3.4,0.8c1.02,0.51,1.79,1.22,2.24,2.28
				c0.12,0.29,0.31,0.56,0.41,0.86C53.3,44.46,53.07,44.55,52.83,44.6z"/>
			<g id="XMLID_238_">
				<path id="XMLID_105_" class="st7" d="M51.1,42.98c0.16-0.02,0.27,0.05,0.32,0.2C51.25,43.2,51.16,43.11,51.1,42.98z"/>
				<path id="XMLID_102_" class="st7" d="M51.47,43.21c0.13-0.03,0.21,0.01,0.21,0.15C51.61,43.31,51.54,43.26,51.47,43.21z"/>
			</g>
		</g>
	</g>
</g>
</svg>
